<?xml version="1.0" encoding="UTF-8" standalone="no"?>
<!-- Created with Inkscape (http://www.inkscape.org/) -->

<svg
   xmlns:dc="http://purl.org/dc/elements/1.1/"
   xmlns:cc="http://creativecommons.org/ns#"
   xmlns:rdf="http://www.w3.org/1999/02/22-rdf-syntax-ns#"
   xmlns:svg="http://www.w3.org/2000/svg"
   xmlns="http://www.w3.org/2000/svg"
   xmlns:xlink="http://www.w3.org/1999/xlink"
   xmlns:sodipodi="http://sodipodi.sourceforge.net/DTD/sodipodi-0.dtd"
   xmlns:inkscape="http://www.inkscape.org/namespaces/inkscape"
   width="721.10736"
   height="673.97125"
   id="svg2889"
   sodipodi:version="0.32"
   inkscape:version="0.92.2 (5c3e80d, 2017-08-06)"
   version="1.0"
   sodipodi:docname="target-foil.svg"
   inkscape:output_extension="org.inkscape.output.svg.inkscape">
  <defs
     id="defs2891">
    <inkscape:perspective
       sodipodi:type="inkscape:persp3d"
       inkscape:vp_x="0 : 340 : 1"
       inkscape:vp_y="0 : 1000 : 0"
       inkscape:vp_z="744.09998 : 340 : 1"
       inkscape:persp3d-origin="372.04999 : 226.66667 : 1"
       id="perspective88" />
    <linearGradient
       inkscape:collect="always"
       xlink:href="#linearGradient2921"
       id="linearGradient2887"
       gradientUnits="userSpaceOnUse"
       gradientTransform="translate(0,19.84252)"
       x1="266.83069"
       y1="542.67725"
       x2="271.72134"
       y2="531.36682" />
    <linearGradient
       id="linearGradient2921">
      <stop
         style="stop-color:#000000;stop-opacity:1;"
         offset="0"
         id="stop2923" />
      <stop
         style="stop-color:#ffffff;stop-opacity:1;"
         offset="1"
         id="stop2925" />
    </linearGradient>
    <linearGradient
       inkscape:collect="always"
       xlink:href="#linearGradient2921"
       id="linearGradient2873"
       gradientUnits="userSpaceOnUse"
       gradientTransform="translate(0,-8.503938)"
       x1="266.83069"
       y1="542.67725"
       x2="271.72134"
       y2="531.36682" />
    <linearGradient
       inkscape:collect="always"
       xlink:href="#linearGradient2943"
       id="linearGradient2871"
       gradientUnits="userSpaceOnUse"
       x1="250.94252"
       y1="539.42859"
       x2="252.60368"
       y2="521.47559" />
    <linearGradient
       inkscape:collect="always"
       xlink:href="#linearGradient2911"
       id="linearGradient2865"
       gradientUnits="userSpaceOnUse"
       gradientTransform="translate(0,28.44456)"
       x1="101.45925"
       y1="619.03442"
       x2="101.6498"
       y2="608.52771" />
    <linearGradient
       inkscape:collect="always"
       xlink:href="#linearGradient2911"
       id="linearGradient2863"
       gradientUnits="userSpaceOnUse"
       x1="69.94751"
       y1="632.36401"
       x2="89.609528"
       y2="631.68616" />
    <linearGradient
       inkscape:collect="always"
       xlink:href="#linearGradient2911"
       id="linearGradient2861"
       gradientUnits="userSpaceOnUse"
       gradientTransform="translate(28.34646)"
       x1="-46.391624"
       y1="644.81763"
       x2="-45.489445"
       y2="636.98694" />
    <linearGradient
       inkscape:collect="always"
       xlink:href="#linearGradient2911"
       id="linearGradient2859"
       gradientUnits="userSpaceOnUse"
       gradientTransform="translate(28.34646)"
       x1="-64.517395"
       y1="629.54022"
       x2="-46.784142"
       y2="630.99811" />
    <linearGradient
       inkscape:collect="always"
       id="linearGradient2951">
      <stop
         style="stop-color:#969696;stop-opacity:1;"
         offset="0"
         id="stop2953" />
      <stop
         style="stop-color:#969696;stop-opacity:0;"
         offset="1"
         id="stop2955" />
    </linearGradient>
    <linearGradient
       inkscape:collect="always"
       xlink:href="#linearGradient2951"
       id="linearGradient2853"
       gradientUnits="userSpaceOnUse"
       gradientTransform="translate(-141.7322)"
       x1="122.98006"
       y1="373.93985"
       x2="137.02541"
       y2="376.16672" />
    <linearGradient
       inkscape:collect="always"
       xlink:href="#linearGradient2943"
       id="linearGradient2851"
       gradientUnits="userSpaceOnUse"
       gradientTransform="translate(-141.7322)"
       x1="61.027943"
       y1="366.2308"
       x2="110.62096"
       y2="377.68332" />
    <linearGradient
       inkscape:collect="always"
       xlink:href="#linearGradient2911"
       id="linearGradient2849"
       gradientUnits="userSpaceOnUse"
       gradientTransform="translate(-11.33858)"
       x1="94.643654"
       y1="390.77402"
       x2="130.11591"
       y2="395.51385" />
    <linearGradient
       id="linearGradient2943">
      <stop
         style="stop-color:#000000;stop-opacity:1;"
         offset="0"
         id="stop2945" />
      <stop
         style="stop-color:#ffffff;stop-opacity:1;"
         offset="1"
         id="stop2947" />
    </linearGradient>
    <linearGradient
       inkscape:collect="always"
       xlink:href="#linearGradient2911"
       id="linearGradient2843"
       gradientUnits="userSpaceOnUse"
       x1="95.347115"
       y1="590.94318"
       x2="124.20185"
       y2="565.99866" />
    <linearGradient
       inkscape:collect="always"
       xlink:href="#linearGradient2911"
       id="linearGradient2841"
       gradientUnits="userSpaceOnUse"
       x1="73.33725"
       y1="524.07513"
       x2="118.12293"
       y2="525.33282" />
    <linearGradient
       id="linearGradient2911">
      <stop
         style="stop-color:#000000;stop-opacity:1;"
         offset="0"
         id="stop2913" />
      <stop
         id="stop3200"
         offset="0.99000001"
         style="stop-color:#ffffff;stop-opacity:1.0000000;" />
      <stop
         style="stop-color:#ffffff;stop-opacity:1;"
         offset="1"
         id="stop2915" />
    </linearGradient>
    <linearGradient
       inkscape:collect="always"
       xlink:href="#linearGradient2911"
       id="linearGradient1605"
       gradientUnits="userSpaceOnUse"
       gradientTransform="matrix(-2.285868,0,0,2.285868,657.2217,-790.6272)"
       x1="51.363434"
       y1="598.80249"
       x2="85.503815"
       y2="591.24512" />
    <linearGradient
       inkscape:collect="always"
       xlink:href="#linearGradient2911"
       id="linearGradient1608"
       gradientUnits="userSpaceOnUse"
       gradientTransform="matrix(-2.285868,0,0,2.285868,981.2035,-790.6272)"
       x1="111.51081"
       y1="588.56531"
       x2="134.13762"
       y2="594.25006" />
    <linearGradient
       inkscape:collect="always"
       xlink:href="#linearGradient2911"
       id="linearGradient1623"
       gradientUnits="userSpaceOnUse"
       gradientTransform="matrix(-2.285868,0,0,2.285868,722.0183,-790.6272)"
       x1="42.679638"
       y1="557.65125"
       x2="87.948616"
       y2="526.349" />
    <linearGradient
       inkscape:collect="always"
       xlink:href="#linearGradient2943"
       id="linearGradient1632"
       gradientUnits="userSpaceOnUse"
       x1="-48.913929"
       y1="456.3475"
       x2="11.382298"
       y2="441.03799" />
    <linearGradient
       inkscape:collect="always"
       xlink:href="#linearGradient2911"
       id="linearGradient1875"
       gradientUnits="userSpaceOnUse"
       gradientTransform="matrix(-2.285868,0,0,2.285868,635.085,-787.9282)"
       x1="31.912666"
       y1="458.60535"
       x2="50.830334"
       y2="449.15939" />
    <linearGradient
       inkscape:collect="always"
       xlink:href="#linearGradient2911"
       id="linearGradient1877"
       gradientUnits="userSpaceOnUse"
       gradientTransform="matrix(-2.187763,-0.662484,-0.662484,2.187763,945.1565,-701.3125)"
       x1="59.407074"
       y1="486.19293"
       x2="70.014183"
       y2="463.12271" />
    <linearGradient
       inkscape:collect="always"
       xlink:href="#linearGradient2911"
       id="linearGradient1897"
       gradientUnits="userSpaceOnUse"
       gradientTransform="translate(0,-28.34646)"
       x1="347.07532"
       y1="455.44022"
       x2="355.44901"
       y2="456.6684" />
    <linearGradient
       inkscape:collect="always"
       xlink:href="#linearGradient2911"
       id="linearGradient1899"
       gradientUnits="userSpaceOnUse"
       gradientTransform="translate(0,-28.34646)"
       x1="344.58826"
       y1="476.36905"
       x2="345.95261"
       y2="449.96301" />
    <linearGradient
       inkscape:collect="always"
       xlink:href="#linearGradient2911"
       id="linearGradient1901"
       gradientUnits="userSpaceOnUse"
       gradientTransform="matrix(2.260721,0.33812,-0.33812,2.260721,-291.5851,-861.1865)"
       x1="359.76846"
       y1="462.5249"
       x2="361.29196"
       y2="452.6994" />
    <linearGradient
       inkscape:collect="always"
       xlink:href="#linearGradient2911"
       id="linearGradient1914"
       gradientUnits="userSpaceOnUse"
       gradientTransform="matrix(-1.075415,2.017096,2.017096,1.075415,-207.5488,-189.9359)"
       x1="-18.941576"
       y1="478.48468"
       x2="-7.4461956"
       y2="467.35028" />
    <linearGradient
       inkscape:collect="always"
       xlink:href="#linearGradient2911"
       id="linearGradient1916"
       gradientUnits="userSpaceOnUse"
       gradientTransform="matrix(-2.285868,0,0,2.285868,1009.55,-790.6272)"
       x1="92.17804"
       y1="427.04926"
       x2="119.82932"
       y2="437.22928" />
    <linearGradient
       inkscape:collect="always"
       xlink:href="#linearGradient2921"
       id="linearGradient1918"
       gradientUnits="userSpaceOnUse"
       gradientTransform="matrix(-1.325735,1.862155,1.862155,1.325735,49.49159,-572.1078)"
       x1="107.29845"
       y1="488.9274"
       x2="121.2193"
       y2="457.90915" />
  </defs>
  <sodipodi:namedview
     id="base"
     pagecolor="#ffffff"
     bordercolor="#666666"
     borderopacity="1.0"
     inkscape:pageopacity="0"
     inkscape:pageshadow="2"
     inkscape:zoom="1.2422827"
     inkscape:cx="500.55981"
     inkscape:cy="335.97548"
     inkscape:document-units="px"
     inkscape:current-layer="layer1"
     inkscape:window-width="1920"
     inkscape:window-height="1017"
     inkscape:window-x="-8"
     inkscape:window-y="-8"
     showgrid="false"
     fit-margin-top="0"
     fit-margin-left="0"
     fit-margin-right="0"
     fit-margin-bottom="0"
     inkscape:showpageshadow="false"
     inkscape:window-maximized="1" />
  <metadata
     id="metadata2894">
    <rdf:RDF>
      <cc:Work
         rdf:about="">
        <dc:format>image/svg+xml</dc:format>
        <dc:type
           rdf:resource="http://purl.org/dc/dcmitype/StillImage" />
        <dc:title>Zones de valables au fleuret</dc:title>
        <dc:creator>
          <cc:Agent>
            <dc:title>Francois Cartegnie</dc:title>
          </cc:Agent>
        </dc:creator>
        <dc:rights>
          <cc:Agent>
            <dc:title>CC-BY-SA</dc:title>
          </cc:Agent>
        </dc:rights>
        <dc:date>11/01/2006</dc:date>
        <cc:license
           rdf:resource="http://creativecommons.org/licenses/by/2.0/" />
      </cc:Work>
      <cc:License
         rdf:about="http://creativecommons.org/licenses/by/2.0/">
        <cc:permits
           rdf:resource="http://web.resource.org/cc/Reproduction" />
        <cc:permits
           rdf:resource="http://web.resource.org/cc/Distribution" />
        <cc:requires
           rdf:resource="http://web.resource.org/cc/Notice" />
        <cc:requires
           rdf:resource="http://web.resource.org/cc/Attribution" />
        <cc:permits
           rdf:resource="http://web.resource.org/cc/DerivativeWorks" />
      </cc:License>
    </rdf:RDF>
  </metadata>
  <g
     inkscape:label="Calque 1"
     inkscape:groupmode="layer"
     id="layer1"
     transform="translate(-13.707456,-6.3767487)">
    <g
       id="g938">
      <g
         transform="translate(-12)"
         id="g1436">
        <g
           id="g2899"
           transform="matrix(-2.285868,0,0,2.285868,916.4071,-790.6272)">
          <path
             style="fill:url(#linearGradient2841);fill-opacity:1;fill-rule:evenodd;stroke:#000000;stroke-width:1px;stroke-linecap:butt;stroke-linejoin:miter;stroke-opacity:1"
             d="m 102.98414,568.5787 c 3.80184,3.3266 7.60367,6.65321 11.40551,9.97981 5.06911,-1.42569 10.91469,-1.70145 13.32078,-5.53477 3.63855,-5.79684 5.32613,-14.85658 6.63885,-22.97899 1.22184,-7.56016 0.0679,-14.26096 2.85138,-22.81101 0.48004,-1.47456 1.26728,-2.85137 1.90092,-4.27706 0.31682,-10.13823 0.63363,-20.27645 0.95045,-30.41468 -4.59388,-5.54434 -9.18777,-11.08869 -13.78165,-16.63303 -6.33639,-1.26728 -12.67278,-2.53455 -19.00917,-3.80183 -2.53456,9.663 -6.17703,17.12609 -6.55558,26.89281 -0.4135,10.66814 2.72441,21.69656 3.7602,32.52521 0.70672,7.38847 0.40085,12.61425 0,20.02998 -0.23279,4.3066 -0.84805,12.74649 -1.48169,17.02356 z"
             id="path2901"
             sodipodi:nodetypes="ccsssccccsssc"
             inkscape:connector-curvature="0" />
          <path
             d="m 133.87695,550.44531 c -0.0651,0.0788 -0.068,0.0672 -0.13867,0.16016 -0.33021,0.43423 -0.74545,1.02271 -1.23047,1.70898 -0.97004,1.37254 -2.21623,3.13938 -3.63281,4.89649 -2.83317,3.51421 -6.32074,7.05198 -9.88672,7.23828 -2.03746,0.10645 -3.96399,-0.92111 -5.70312,-2.39844 -1.73914,-1.47733 -3.30943,-3.42137 -4.64454,-5.25195 -1.3351,-1.83058 -2.43743,-3.55506 -3.19531,-4.5586 -0.29206,-0.38673 -0.46273,-0.53022 -0.58984,-0.64453 -0.23077,4.26494 -0.85029,12.48034 -1.48047,16.83789 3.70115,3.23823 7.40367,6.46632 11.10547,9.70508 2.50507,-0.68702 5.15331,-1.11584 7.45312,-1.81055 2.36363,-0.71398 4.32726,-1.70397 5.45703,-3.5039 3.5014,-5.57833 5.18509,-14.38519 6.48633,-22.37891 z"
             id="path2903"
             style="fill:url(#linearGradient2843);fill-opacity:1;fill-rule:evenodd;stroke:none;stroke-width:1px;stroke-linecap:butt;stroke-linejoin:miter;stroke-opacity:1"
             inkscape:original="M 134.1875 549.53125 C 132.88183 550.33272 125.59555 563.7163 118.96875 564.0625 C 111.39527 564.45818 104.66917 547.85464 104.46875 551.5625 C 104.23596 555.86913 103.60239 564.31668 102.96875 568.59375 C 106.77059 571.92038 110.57316 575.2359 114.375 578.5625 C 119.44411 577.13679 125.31266 576.86457 127.71875 573.03125 C 131.3573 567.23441 133.03103 558.15366 134.34375 550.03125 C 134.42012 549.55874 134.37402 549.41675 134.1875 549.53125 z "
             inkscape:radius="-0.38776162"
             sodipodi:type="inkscape:offset" />
        </g>
        <path
           sodipodi:nodetypes="csssscsc"
           id="path2905"
           d="m 595.83653,405.28725 c -32.02908,25.88652 -88.57914,77.78363 -96.08726,77.65958 -9.88402,-0.1633 -40.0938,-8.7869 -52.3504,-14.2709 -2.60404,-1.16513 -0.91217,-10.71144 2.2284,-16.00316 28.88846,-48.67511 60.22261,-96.70698 92.24244,-143.47278 1.32552,-1.93597 4.38756,-1.75502 6.58133,-2.63252 7.89758,16.45329 19.13191,15.88916 27.0295,32.34245 7.89758,16.45329 12.45841,49.92402 20.35599,66.37733 z"
           style="fill:url(#linearGradient1623);fill-opacity:1;fill-rule:evenodd;stroke:#000000;stroke-width:2.28586793px;stroke-linecap:butt;stroke-linejoin:miter;stroke-opacity:1"
           inkscape:connector-curvature="0" />
        <g
           id="g2907"
           transform="matrix(-2.285868,0,0,2.285868,657.2217,-790.6272)">
          <path
             style="fill:url(#linearGradient1632);fill-opacity:1;fill-rule:evenodd;stroke:#000000;stroke-width:1px;stroke-linecap:butt;stroke-linejoin:miter;stroke-opacity:1"
             d="m 5.935932,388.99338 c -7.19266,4.31559 -14.38532,8.63119 -21.577977,12.94678 2.260547,2.1578 6.159117,3.62757 6.781647,6.4734 1.53527,7.01839 0.32269,15.47772 -0.30826,23.11926 -0.29382,3.55846 -1.64403,6.98716 -2.46605,10.48074 0.2055,4.82936 0.41101,9.65871 0.61651,14.48807 1.64404,5.24037 3.28807,10.48073 4.93211,15.7211 6.47339,1.13028 12.78312,1.80811 17.98491,5.06531 5.792697,3.62721 11.692017,10.22839 13.802527,16.78395 2.31574,7.19307 0.57954,19.35441 0.27128,29.62964 3.544955,-7.29541 5.192257,-12.5472 10.780833,-26.4114 3.032439,-7.52291 6.94393,-10.06566 10.488884,-17.36107 -0.2055,-3.18532 -0.14229,-6.40378 -0.61651,-9.55597 -1.27257,-8.45882 -4.378167,-16.86204 -4.623857,-25.27706 -0.16532,-5.66205 1.417427,-11.72839 2.433987,-18.15018 0.81468,-5.14655 0.75133,-9.28468 0.64858,-14.52505 -4.110087,-2.87706 -8.809847,-4.47466 -12.330267,-8.63119 -0.90785,-1.07189 -1.43853,-2.46606 -2.1578,-3.69909 -8.22018,-3.69908 -16.440367,-7.39816 -24.660547,-11.09724 z"
             id="path2910"
             sodipodi:nodetypes="ccsscccsscscssscscc"
             inkscape:connector-curvature="0" />
          <path
             sodipodi:nodetypes="css"
             id="path2912"
             d="m 7.657382,400.18955 c 0.65105,11.95561 2.18896,24.46116 1.95314,36.39951 -0.23767,12.03206 -2.24907,24.73982 -3.37361,36.75462"
             style="fill:none;fill-opacity:1;fill-rule:evenodd;stroke:#d1d1d1;stroke-width:1px;stroke-linecap:butt;stroke-linejoin:miter;stroke-opacity:1"
             inkscape:connector-curvature="0" />
        </g>
        <g
           id="g2914"
           transform="matrix(-2.285868,0,0,2.285868,890.4891,-790.6272)">
          <path
             style="fill:url(#linearGradient2849);fill-opacity:1;fill-rule:evenodd;stroke:#000000;stroke-width:1px;stroke-linecap:butt;stroke-linejoin:miter;stroke-opacity:1"
             d="m 109.11529,384.93433 c 0,3.63171 -0.86956,7.4838 0,10.89513 0.87905,3.44857 2.9435,6.89757 5.24581,9.68457 2.80899,3.40036 5.89748,6.28959 9.66582,8.17376 2.15,1.075 5.57024,1.02242 8.08921,0.70376 3.06311,-0.3875 4.12563,-2.28788 4.43876,-2.82467 0.62843,-1.0773 0.97528,-3.50817 0.40352,-4.84228 -0.63881,-1.49055 -2.35702,-2.45034 -3.04997,-3.91321 -0.51762,-1.09278 -0.71625,-2.40866 -0.58174,-3.75374 -8.07047,-4.70777 -16.14094,-9.41555 -24.21141,-14.12332 z"
             id="path2916"
             sodipodi:nodetypes="cssssssscc"
             inkscape:connector-curvature="0" />
          <path
             style="fill:none;fill-opacity:0.75;fill-rule:evenodd;stroke:#a7a7a7;stroke-width:1px;stroke-linecap:butt;stroke-linejoin:miter;stroke-opacity:1"
             d="m 112.12061,388.17798 c 1.30131,8.89099 5.5699,14.4048 8.45315,16.58537 1.63493,1.23648 5.34381,4.221 8.26367,4.84609 1.27182,0.27227 4.78068,-1.94526 6.27064,-3.16622"
             id="path2918"
             sodipodi:nodetypes="csss"
             inkscape:connector-curvature="0" />
          <path
             sodipodi:nodetypes="css"
             id="path2920"
             d="m 115.0453,389.86783 c 1.45243,4.25161 2.95076,11.45884 13.611,15.83541 2.41799,0.99271 3.11861,-0.55459 5.14587,-1.11493"
             style="fill:none;fill-opacity:0.75;fill-rule:evenodd;stroke:#a7a7a7;stroke-width:1px;stroke-linecap:butt;stroke-linejoin:miter;stroke-opacity:1"
             inkscape:connector-curvature="0" />
          <path
             style="fill:none;fill-opacity:0.75;fill-rule:evenodd;stroke:#a7a7a7;stroke-width:1px;stroke-linecap:butt;stroke-linejoin:miter;stroke-opacity:1"
             d="m 118.11677,391.51679 c 4.84224,7.56941 11.03914,10.5407 14.56401,11.34277"
             id="path2922"
             sodipodi:nodetypes="cs"
             inkscape:connector-curvature="0" />
        </g>
        <g
           id="g2924"
           transform="matrix(-2.285868,0,0,2.285868,527.629,-790.6272)">
          <path
             style="fill:url(#linearGradient2851);fill-opacity:1;fill-rule:evenodd;stroke:#000000;stroke-width:1px;stroke-linecap:butt;stroke-linejoin:miter;stroke-opacity:1"
             d="m -49.453949,384.34503 c 0.76321,2.90166 17.755886,10.32544 26.633836,15.48816 8.9262,-0.36187 13.63882,-6.243 15.68719,-16.89946 1.99633,-10.38575 5.2773,-22.68942 -7.29174,-30.4335 -7.71995,-1.10974 -15.43991,-2.21949 -23.15986,-3.32923 -5.452217,0.79612 -8.664176,9.73212 -10.277186,15.70528 -1.54399,5.71758 -2.16562,17.2888 -1.59224,19.46875 z"
             id="path2926"
             sodipodi:nodetypes="ccsccss"
             inkscape:connector-curvature="0" />
          <path
             sodipodi:nodetypes="cscsc"
             id="path2928"
             d="m -22.820113,399.83319 c 8.9262,-0.36187 13.63882,-6.243 15.68719,-16.89946 1.99633,-10.38575 5.2773,-22.68942 -7.29174,-30.4335 -6.12771,3.95648 -7.89173,14.88322 -9.26395,20.91625 -1.39924,6.15182 -3.81173,22.55673 0.8685,26.41671 z"
             style="fill:url(#linearGradient2853);fill-opacity:1;fill-rule:evenodd;stroke:#000000;stroke-width:1px;stroke-linecap:butt;stroke-linejoin:miter;stroke-opacity:1"
             inkscape:connector-curvature="0" />
          <path
             sodipodi:nodetypes="ccccc"
             id="path2930"
             d="m -48.464346,370.98872 c 7.719947,2.99148 8.355069,3.38536 17.812019,5.6531 2.12299,-10.06006 4.59029,-20.0396 9.69819,-24.60735 -7.71995,-1.10974 -8.6367,-1.20625 -16.35665,-2.31599 -6.031217,0.50662 -10.622819,14.8289 -11.153559,21.27024 z"
             style="fill:#c0c0c0;fill-opacity:1;fill-rule:evenodd;stroke:none;stroke-width:1px;stroke-linecap:butt;stroke-linejoin:miter;stroke-opacity:1"
             inkscape:connector-curvature="0" />
        </g>
        <path
           sodipodi:nodetypes="cssccssscsc"
           d="m 680.88641,509.93153 c 5.43157,10.8631 12.64572,18.97028 15.32007,30.64016 5.29195,23.09209 4.13509,47.6664 7.60417,71.3717 0.87618,5.98724 3.89873,11.63447 4.45959,17.70585 l -30.53106,10.86311 c 0,0 -2.85699,-16.86808 -5.43156,-28.24409 -1.31806,-5.82394 -1.56749,-12.20423 -4.34525,-17.38099 -5.18851,-9.66952 -12.21836,-17.5364 -16.95467,-27.48267 -6.12679,-12.86628 -11.28943,-27.19502 -15.63468,-40.95496 6.51788,1.44842 15.00723,2.73603 20.52822,0.44684 9.32529,-3.86657 16.65677,-9.36079 24.98517,-16.96495 z"
           style="fill:url(#linearGradient1608);fill-opacity:1;fill-rule:evenodd;stroke:#000000;stroke-width:2.28586793px;stroke-linecap:butt;stroke-linejoin:miter;stroke-opacity:1"
           id="path2932"
           inkscape:connector-curvature="0" />
        <path
           sodipodi:nodetypes="ccscccsscc"
           d="m 496.44027,482.94683 c -0.87752,22.3765 -0.28093,44.04833 -5.38623,66.42483 -11.76651,38.92884 -21.08839,59.27864 -23.96909,73.09916 -1.48158,7.10811 2.72501,19.30521 4.91878,28.95781 0.37534,7.73775 -38.63325,-24.27894 -38.63325,-24.27894 1.16012,-11.50132 2.12759,-27.9873 3.19811,-40.21799 3.51004,-28.51906 4.94308,-57.20005 9.25047,-85.55716 0.95767,-6.30452 2.67369,-10.25605 3.3456,-18.42771 0.48712,-5.92419 -0.47539,-8.7751 -1.35289,-13.16264 15.35641,4.38754 33.27211,8.7751 48.6285,13.16264 z"
           style="fill:url(#linearGradient1605);fill-opacity:1;fill-rule:evenodd;stroke:#000000;stroke-width:2.28586793px;stroke-linecap:butt;stroke-linejoin:miter;stroke-opacity:1"
           id="path2934"
           inkscape:connector-curvature="0" />
        <g
           id="g2936"
           transform="matrix(-2.285868,0,0,2.285868,657.2217,-790.6272)">
          <path
             id="path2938"
             style="fill:url(#linearGradient2859);fill-opacity:1;fill-rule:evenodd;stroke:#000000;stroke-width:1px;stroke-linecap:butt;stroke-linejoin:miter;stroke-opacity:1"
             d="m -8.9759983,626.08145 0.42386,-3.42936 c -1.02752,0.30826 -2.0550497,0.61651 -3.0825697,0.92477 -1.23303,0.41101 -3.158697,0.77169 -4.267567,0.38032 -2.38471,-0.84166 -3.95262,-2.43536 -6.21317,-4.0794 -0.847707,5.23609 -1.695413,10.47217 -2.54312,15.70826 l -1.11125,1.90091 c 1.705003,5.70449 5.475271,4.97022 8.881081,5.20783 3.405809,0.23762 10.031002,0.77895 10.764116,-3.78214 z"
             sodipodi:nodetypes="cccscccccc"
             inkscape:connector-curvature="0" />
          <path
             sodipodi:nodetypes="cssssccc"
             id="path2940"
             d="m -25.03125,638.0625 c 0.80997,2.17361 1.91281,3.13798 3.21875,3.59375 1.452753,0.50701 3.215915,0.40896 4.96875,0.53125 1.706868,0.1191 4.17728,0.29296 6.25,-0.0937 1.0363601,-0.19335 1.9691343,-0.51168 2.65625,-1.03125 0.5482417,-0.41456 0.8995268,-1.00658 1.125,-1.71875 -3.0364583,-0.21354 -6.849736,1.3855 -9.886194,1.17195 -3.036458,-0.21354 -5.296098,-2.23966 -8.332556,-2.4532 z"
             style="fill:url(#linearGradient2861);fill-opacity:1;fill-rule:evenodd;stroke:none;stroke-width:1px;stroke-linecap:butt;stroke-linejoin:miter;stroke-opacity:1"
             inkscape:connector-curvature="0" />
        </g>
        <g
           id="g2942"
           transform="matrix(-2.285868,0,0,2.285868,657.2217,-790.6272)">
          <path
             id="path2944"
             style="fill:url(#linearGradient2863);fill-opacity:1;fill-rule:evenodd;stroke:#000000;stroke-width:1px;stroke-linecap:butt;stroke-linejoin:miter;stroke-opacity:1"
             d="m 82.383633,625.73466 c 2.1578,-0.30826 3.28933,-0.20601 6.51444,-1.13002 1.87171,-0.82405 9.03004,-4.82929 9.03004,-4.82929 0,0 7.814137,5.89921 10.117447,8.20251 2.30331,2.3033 14.28571,4.75681 17.0087,6.7528 2.72299,1.99599 1.69965,7.45074 -0.0466,8.27624 -14.58761,-0.19194 -29.392857,0.1245 -43.980467,-0.0674 0,-2.68719 -0.1642,-8.69742 0,-12.08246 0.47986,-2.11137 -0.39395,-4.6613 1.35643,-5.12234 z"
             sodipodi:nodetypes="ccczzcccc"
             inkscape:connector-curvature="0" />
          <path
             sodipodi:nodetypes="cssscssccsssssssc"
             id="path2946"
             d="m 102.1875,638.5356 c -5.29404,-0.0254 -10.525096,0.0722 -14.4375,0.3125 -1.956202,0.12015 -3.588296,0.28343 -4.71875,0.46875 -0.565227,0.0927 -1.01181,0.18723 -1.28125,0.28125 -0.08757,0.0306 -0.111266,0.0711 -0.15625,0.0937 -0.05585,1.21756 -0.06924,1.67296 -0.0625,1.71875 0.0038,0.0258 0.01691,0.15325 0.03125,0.375 0.0079,0.12202 0.02695,0.45282 0.03125,0.6875 14.351788,0.17601 28.90747,-0.12375 43.28125,0.0625 0.36607,-0.17677 0.34383,-0.37637 0.56147,-0.53125 0.24584,-0.17495 0.1943,-0.30321 0.21295,-0.375 0.0186,-0.0718 0.17387,-0.19076 -0.0255,-0.46875 -0.19932,-0.27799 -0.25132,-0.64569 -0.90522,-1.125 -0.0343,-0.0251 -0.29969,-0.17817 -0.71875,-0.28125 -0.41906,-0.10308 -1.00973,-0.18682 -1.6875,-0.28125 -1.35555,-0.18886 -3.14716,-0.36687 -5.25,-0.5 -4.20568,-0.26626 -9.58059,-0.41215 -14.875,-0.4375 z"
             style="fill:url(#linearGradient2865);fill-opacity:1;fill-rule:evenodd;stroke:none;stroke-width:1px;stroke-linecap:butt;stroke-linejoin:miter;stroke-opacity:1"
             inkscape:connector-curvature="0" />
        </g>
        <g
           id="g1871"
           transform="translate(28.34646)">
          <path
             sodipodi:nodetypes="cccss"
             id="path2950"
             style="fill:url(#linearGradient1875);fill-opacity:1;fill-rule:evenodd;stroke:#000000;stroke-width:2.28586793px;stroke-linecap:butt;stroke-linejoin:miter;stroke-opacity:1"
             d="m 522.72952,283.62182 11.27414,-61.30321 -9.16024,-70.46345 c 0,0 -19.00128,67.17274 -30.2993,92.30712 -2.03131,4.519 -5.52652,9.17728 -9.86487,11.27415"
             inkscape:connector-curvature="0" />
          <path
             d="m 494.49604,245.60311 c -10.70207,1.68528 -22.51397,0.38079 -33.67687,-0.6268 -16.54733,-1.49358 -32.96919,-4.58448 -49.45381,-6.87672 1.04328,5.46955 3.76838,11.08417 3.1298,16.40862 -0.8099,6.75288 -4.98349,13.21557 -7.47526,19.82335 23.26015,4.62577 40.66388,8.08036 58.55365,13.65789 12.9201,4.02812 26.30997,0.42428 39.88386,-0.783 5.84576,-0.51992 11.52482,-2.39998 17.28724,-3.59997"
             style="fill:url(#linearGradient1877);fill-opacity:1;fill-rule:evenodd;stroke:#000000;stroke-width:2.28586793px;stroke-linecap:butt;stroke-linejoin:miter;stroke-opacity:1"
             id="path2952"
             sodipodi:nodetypes="cscscssc"
             inkscape:connector-curvature="0" />
        </g>
        <g
           id="g2954"
           transform="matrix(-2.229729,-0.503486,-0.503486,2.229729,1252.367,-780.2671)">
          <path
             id="path2956"
             style="fill:url(#linearGradient2871);fill-opacity:1;fill-rule:evenodd;stroke:#000000;stroke-width:1px;stroke-linecap:butt;stroke-linejoin:miter;stroke-opacity:1"
             d="m 265.81257,530.71397 -0.63625,-9.54378 z m -25.68046,-1.36278 1.00722,-9.0614 5.24408,-8.95031 22.41659,3.52364 -3.39083,6.47339 0.61652,9.24771 z"
             sodipodi:nodetypes="cccccccccc"
             inkscape:connector-curvature="0" />
          <path
             id="path2958"
             style="fill:url(#linearGradient2873);fill-opacity:1;fill-rule:evenodd;stroke:#000000;stroke-width:1px;stroke-linecap:butt;stroke-linejoin:miter;stroke-opacity:1"
             d="m 275.9926,524.35141 2.54501,2.22688 0.63625,4.45376 3.49938,-0.95438 -0.95438,-5.09001 -3.18125,-3.18126 h -1.90876 z m 2.83465,-1.88026 2.54501,2.22688 0.63625,4.45376 3.49938,-0.95438 -0.95438,-5.09001 -3.18125,-3.18126 h -1.90876 z m -5.09518,4.39168 2.22877,1.95017 0.55719,3.90035 3.06456,-0.83579 -0.83579,-4.45754 -2.78596,-2.78596 h -1.67158 z m 8.24796,-5.95381 2.54501,2.22688 0.63625,4.45376 3.49938,-0.95438 -0.95438,-5.09001 -3.18125,-3.18126 h -1.90876 z m -16.16746,9.80491 7.3169,1.59062 2.86313,0.31813 13.04316,-6.04439 -1.27251,-5.72626 1.59063,-0.63625 -5.40814,-5.40814 -14.63378,0.31812 -4.13564,6.04439 z"
             sodipodi:nodetypes="cccccccccccccccccccccccccccccccccccccccccc"
             inkscape:connector-curvature="0" />
        </g>
        <g
           id="g1890"
           transform="translate(4.666905,-50.61797)">
          <path
             style="fill:none;fill-opacity:0.75;fill-rule:evenodd;stroke:#000000;stroke-width:2.28586555px;stroke-linecap:butt;stroke-linejoin:miter;stroke-opacity:1"
             d="m 21.086407,223.76279 c 77.390602,-3.10753 244.245453,40.88455 310.692613,63.75717"
             id="path2970"
             sodipodi:nodetypes="cs"
             inkscape:connector-curvature="0" />
          <g
             id="g2972"
             transform="matrix(1.214596,-0.06151994,0.03974002,1.880268,-100.4742,-493.0272)">
            <path
               sodipodi:nodetypes="cssssss"
               id="path2974"
               d="m 353.10403,416.4721 c -5.10914,-1.14516 -9.46153,4.22917 -10.849,7.77852 -1.54653,3.95624 0.0742,13.71435 2.04698,14.73826 1.33008,0.69035 4.04832,1.92253 5.11745,1.02349 1.9331,-1.62557 3.06206,-5.59491 3.88926,-8.59732 1.01509,-3.68439 1.68851,-7.74604 1.63759,-11.46309 -0.0173,-1.26393 -0.84957,-3.25735 -1.84228,-3.47986 z"
               style="fill:url(#linearGradient1897);fill-opacity:1;fill-rule:evenodd;stroke:#000000;stroke-width:1px;stroke-linecap:butt;stroke-linejoin:miter;stroke-opacity:1"
               inkscape:connector-curvature="0" />
            <path
               style="fill:url(#linearGradient1899);fill-opacity:1;fill-rule:evenodd;stroke:#000000;stroke-width:1px;stroke-linecap:butt;stroke-linejoin:miter;stroke-opacity:1"
               d="m 353.10403,416.4721 c -5.10914,-1.14516 -9.46153,4.22917 -10.849,7.77852 -1.54653,3.95624 -0.26602,15.02573 3.27517,15.35235 2.45859,0.22677 1.41992,-5.63431 2.66107,-12.48658 0.7826,-4.32069 5.90547,-10.42178 4.91276,-10.64429 z"
               id="path2976"
               sodipodi:nodetypes="cssss"
               inkscape:connector-curvature="0" />
          </g>
          <path
             style="fill:url(#linearGradient1901);fill-opacity:1;fill-rule:evenodd;stroke:#000000;stroke-width:2.28586555px;stroke-linecap:butt;stroke-linejoin:miter;stroke-opacity:1"
             d="m 346.13586,287.37267 53.19622,11.26797 -0.32028,8.4682 -55.53178,-8.30548 -3.14842,-4.25581 z"
             id="path2978"
             inkscape:connector-curvature="0" />
        </g>
        <g
           transform="matrix(-2.229729,-0.503486,-0.503486,2.229729,1266.639,-843.4712)"
           id="g2980">
          <path
             sodipodi:nodetypes="cccccccccccccccccccccccccccccccc"
             d="m 275.9926,552.69787 2.54501,2.22688 0.63625,4.45376 3.49938,-0.95438 -0.95438,-5.09001 -3.18125,-3.18126 h -1.90876 z m 2.83465,-1.88026 2.54501,2.22688 0.63625,4.45376 3.49938,-0.95438 -0.95438,-5.09001 -3.18125,-3.18126 h -1.90876 z m -5.09518,4.39168 2.22877,1.95017 0.55719,3.90035 3.06456,-0.83579 -0.83579,-4.45754 -2.78596,-2.78596 h -1.67158 z m 8.24796,-5.95381 2.54501,2.22688 0.63625,4.45376 3.49938,-0.95438 -0.95438,-5.09001 -3.18125,-3.18126 h -1.90876 z"
             style="fill:url(#linearGradient2887);fill-opacity:1;fill-rule:evenodd;stroke:#000000;stroke-width:1px;stroke-linecap:butt;stroke-linejoin:miter;stroke-opacity:1"
             id="path2982"
             inkscape:connector-curvature="0" />
        </g>
        <g
           id="g1909"
           transform="translate(-22.67718)">
          <path
             id="path2966"
             style="fill:url(#linearGradient1914);fill-opacity:1;fill-rule:evenodd;stroke:#000000;stroke-width:2.28586793px;stroke-linecap:butt;stroke-linejoin:miter;stroke-opacity:1"
             d="m 727.38053,290.83302 -9.81386,13.54852 -3.83081,9.61464 c 0,0 -1.81877,14.16078 0.0696,16.87507 0.67813,0.97468 3.46976,0.088 4.36992,-0.90824 1.73265,-1.91753 2.70328,-5.1012 3.52853,-7.83296 1.99713,-6.61099 3.05631,-19.09417 3.05631,-19.09417 0,0 -5.39682,20.29069 -4.80316,27.22941 0.10786,1.26062 2.37973,2.8788 3.26106,2.38625 1.88613,-1.05415 3.93854,-4.39562 5.04135,-7.02639 2.66927,-6.36757 3.32516,-19.59843 3.32516,-19.59843 0,0 -6.74933,21.57045 -4.23202,24.94345 1.22876,1.6464 6.66635,-0.28395 8.23555,-2.08535 1.76942,-2.03128 1.24114,-6.26557 1.78029,-9.41265 1.04509,-6.10027 2.18288,-15.02653 2.18288,-15.02653 0,0 -3.99225,18.28782 -2.28318,18.85874 1.54339,0.51552 5.60796,-3.39807 6.55418,-6.21985 1.68608,-5.02815 3.66226,-12.94257 3.66226,-12.94257 l 7.79815,-4.90899 4.33509,-9.34579 -16.74134,-5.03997 z m -7.12532,8.50578 -12.33522,12.20426 0.0682,7.16014 4.97513,1.44188 1.51204,-8.48562 z"
             sodipodi:nodetypes="cccssscssscssscssccccccccccc"
             inkscape:connector-curvature="0" />
          <path
             style="fill:url(#linearGradient1916);fill-opacity:1;fill-rule:evenodd;stroke:#000000;stroke-width:2.28586793px;stroke-linecap:butt;stroke-linejoin:miter;stroke-opacity:1"
             d="m 724.19358,245.1243 c 1.55331,-8.2844 -9.6807,-21.60879 -16.25728,-32.4132 -4.2278,-8.69048 -9.30302,-16.89494 -11.4207,-26.07146 -2.11013,-9.14398 -0.95167,-19.37326 0,-28.89004 0.69248,-6.92469 1.40624,-14.89318 4.93245,-20.4344 3.05037,-4.79342 8.60215,-7.04635 13.5346,-10.56951 2.58367,0.46975 5.97549,0.6442 7.75099,2.35629 4.8011,4.62962 8.78676,10.35275 11.97877,16.66885 7.84727,15.52756 15.49094,31.47288 21.13904,47.91513 4.92141,14.32679 8.00459,29.4551 10.56951,44.39199 1.42801,8.31606 2.9538,19.01058 -1.43184,25.05117"
             id="path2962"
             sodipodi:nodetypes="ccssscsssss"
             inkscape:connector-curvature="0" />
          <path
             style="fill:url(#linearGradient1918);fill-opacity:1;fill-rule:evenodd;stroke:#000000;stroke-width:2.28586793px;stroke-linecap:butt;stroke-linejoin:miter;stroke-opacity:1"
             d="m 766.08349,238.26774 c 4.37073,13.0092 1.0797,28.99652 0.66707,44.56047 -2.37089,2.92524 -3.78722,6.14254 -6.15813,9.06777 -5.13705,-2.50396 -11.33652,-6.43206 -16.65785,-6.84941 -5.60162,-0.43935 -11.27969,2.33994 -17.0656,3.9872 -1.0378,-0.16222 -2.07562,-0.32442 -3.11343,-0.48664 2.00477,-10.10562 4.52094,-41.6357 -0.24229,-46.57993"
             id="path2964"
             sodipodi:nodetypes="cccsccs"
             inkscape:connector-curvature="0" />
        </g>
      </g>
      <path
         sodipodi:nodetypes="cssscssscscsscccsssccs"
         id="path2997"
         d="m 630.65943,110.32243 c -0.648,5.04152 -50.0101,20.0461 -55.98974,19.72609 -2.37914,-0.12732 -2.83907,-1.10253 -2.86815,-1.00341 -2.5486,8.68558 -15.7414,13.77266 -6.65128,8.80887 7.33124,-4.00333 -13.65364,7.66344 -23.04876,14.24002 -0.23487,11.97879 -0.3935,21.42318 1.46875,33.1875 2.32372,14.67937 5.9404,28.5573 5.5625,41.5 -0.56161,19.23563 -7.65358,38.4455 -10.5625,57.78125 -1.084,7.20549 -0.9365,14.56253 -1.40625,21.84375 8.1033,16.67634 17.03699,22.49111 23.96875,39.6875 12.77474,31.69173 16.55295,43.69866 24.65625,60.375 -0.70464,-23.48782 -4.66848,-51.3076 0.625,-67.75 4.82435,-14.98514 18.28991,-30.05242 31.53125,-38.34375 11.89061,-7.44553 26.32768,-9.01009 41.125,-11.59375 3.75806,-11.9788 7.52319,-23.95871 11.28125,-35.9375 0.46975,-11.03928 0.93651,-22.08572 1.40625,-33.125 -1.87903,-7.98586 -4.33479,-15.88334 -5.65625,-23.9375 -0.56944,-3.47067 -3.52352,-5.3635 -4.03582,-17.19592 -0.476,-10.99393 1.22448,-25.93883 3.34832,-35.64783 1.42301,-6.50519 10.33269,-9.88005 15.5,-14.8125 -16.44146,-9.86487 -33.90797,-19.72836 -50.34944,-29.593224 -0.66768,0.30045 0.12126,11.585064 0.0949,11.790404 z"
         style="opacity:0.7987988;fill:#ff2f00;fill-opacity:1;fill-rule:evenodd;stroke:none;stroke-width:1px;stroke-linecap:butt;stroke-linejoin:miter;stroke-opacity:1"
         inkscape:connector-curvature="0" />
    </g>
  </g>
</svg>
